<svg id="Capa_1" enable-background="new 0 0 510.77 510.77" height="512" viewBox="0 0 510.77 510.77" width="512" xmlns="http://www.w3.org/2000/svg"><g><g><g><g id="XMLID_192_"><g><path d="m386.995 37.425v347.75c0 28.65-23.22 51.87-51.87 51.87h-159.08c-21.46 0-38.85-17.39-38.85-38.85v-338.83c0-28.64 23.23-51.87 51.87-51.87h62.81 105.19c16.53 0 29.93 13.4 29.93 29.93z" fill="#c8effe"/></g></g><path d="m197.055 398.195v-338.83c0-28.64 23.23-51.87 51.87-51.87h-59.86c-28.64 0-51.87 23.23-51.87 51.87v338.83c0 21.46 17.39 38.85 38.85 38.85h59.86c-21.46 0-38.85-17.39-38.85-38.85z" fill="#99e6fc"/><path d="m386.995 363.155v-170.295h-35.392c-23.002 0-41.716 18.714-41.716 41.716 0 7.95 2.238 15.386 6.113 21.716-3.875 6.33-6.113 13.766-6.113 21.716s2.238 15.386 6.113 21.716c-3.875 6.33-6.113 13.766-6.113 21.716 0 23.002 18.714 41.716 41.716 41.716h35.392z" fill="#99e6fc"/><g fill="#ffe5c2"><path d="m394.624 253.015h-43.021c-11.993 0-21.716-9.723-21.716-21.716 0-11.993 9.723-21.716 21.716-21.716h43.021c11.993 0 21.716 9.723 21.716 21.716 0 11.994-9.722 21.716-21.716 21.716z"/><path d="m394.624 296.447h-43.021c-11.993 0-21.716-9.723-21.716-21.716 0-11.993 9.723-21.716 21.716-21.716h43.021c11.993 0 21.716 9.723 21.716 21.716 0 11.994-9.722 21.716-21.716 21.716z"/><path d="m394.624 339.879h-43.021c-11.993 0-21.716-9.723-21.716-21.716 0-11.993 9.723-21.716 21.716-21.716h43.021c11.993 0 21.716 9.723 21.716 21.716 0 11.993-9.722 21.716-21.716 21.716z"/></g><path d="m357.065 7.495h-93.625c-4.757 7.119-7.538 15.665-7.538 24.851v68.572c0 24.729 20.118 44.846 44.846 44.846h86.246v-108.339c.001-16.53-13.399-29.93-29.929-29.93z" fill="#99e6fc"/><g id="XMLID_193_"><g><path d="m347.865 7.495-29.48 43.22h-72.48-17.07c-11.91 0-22.33-7.99-25.42-19.5l-6.36-23.72h54.82z" fill="#d7d0d6"/></g></g><path d="m255.903 50.715h62.482l29.48-43.22h-84.425c-4.757 7.119-7.538 15.665-7.538 24.851v18.369z" fill="#c9bfc8"/><path d="m473.234 125.764h-172.485c-13.722 0-24.846-11.124-24.846-24.846v-68.572c0-13.722 11.124-24.846 24.846-24.846h172.485c13.722 0 24.846 11.124 24.846 24.846v68.572c0 13.722-11.124 24.846-24.846 24.846z" fill="#bbec6c"/><g id="XMLID_191_"><g><path d="m179.585 177.725c7.5 8.06 8.92 20.04 3.53 29.64l-43.62 77.51c-1.43 2.54-1.46 5.63-.09 8.2l26.12 48.74c21.47 40.06 18.69 88.79-7.2 126.15l-18.816 27.155c-3.16 4.56-9.343 5.833-14.048 2.894l-103.402-64.62c-5.081-3.175-6.431-9.978-2.948-14.852l16.294-22.806-1.29-37.29c-1.59-45.73 16.09-90.03 48.73-122.09l60.49-59.44c4.93-4.85 11.34-7.26 17.73-7.26 6.77-.001 13.53 2.709 18.52 8.069z" fill="#ffe5c2"/></g></g><path d="m46.727 439.286 9.458-13.237c4.433-6.205 6.693-13.7 6.43-21.321l-.883-25.537c-1.59-45.73 16.09-90.03 48.73-122.09l60.49-59.44c4.229-4.161 9.564-6.517 15.025-7.105-.829-4.69-2.982-9.167-6.39-12.83-4.99-5.36-11.75-8.07-18.52-8.07-6.39 0-12.8 2.41-17.73 7.26l-60.49 59.44c-32.64 32.06-50.32 76.36-48.73 122.09l1.29 37.29-16.294 22.806c-3.483 4.875-2.133 11.677 2.948 14.852l23.039 14.398c-.691-2.829-.211-5.934 1.627-8.506z" fill="#fed2a4"/></g><path d="m197.055 7.495 6.36 23.72c.192.717.414 1.42.661 2.108 8.987-15.439 25.703-25.828 44.849-25.828z" fill="#c9bfc8"/></g><g><path d="m275.903 429.542h-70.904c-4.142 0-7.5 3.358-7.5 7.5s3.358 7.5 7.5 7.5h70.904c4.142 0 7.5-3.358 7.5-7.5s-3.358-7.5-7.5-7.5z"/><path d="m423.84 231.299c0-16.11-13.106-29.216-29.216-29.216h-.133v-48.319c0-4.142-3.358-7.5-7.5-7.5s-7.5 3.358-7.5 7.5v48.319h-27.888c-16.11 0-29.216 13.106-29.216 29.216 0 8.612 3.748 16.364 9.696 21.716-5.948 5.352-9.696 13.103-9.696 21.716 0 8.612 3.748 16.364 9.696 21.716-5.948 5.352-9.696 13.103-9.696 21.716 0 16.11 13.106 29.216 29.216 29.216h27.888v37.798c0 24.463-19.902 44.365-44.365 44.365h-27.261c-4.142 0-7.5 3.358-7.5 7.5s3.358 7.5 7.5 7.5h27.261c32.734 0 59.365-26.631 59.365-59.365v-37.798h.133c16.11 0 29.216-13.106 29.216-29.216 0-8.612-3.748-16.364-9.696-21.716 5.948-5.352 9.696-13.103 9.696-21.716 0-8.612-3.748-16.364-9.696-21.716 5.948-5.351 9.696-13.103 9.696-21.716zm-15 86.864c0 7.838-6.377 14.216-14.216 14.216h-43.021c-7.839 0-14.216-6.377-14.216-14.216s6.377-14.216 14.216-14.216h43.021c7.839 0 14.216 6.378 14.216 14.216zm0-43.432c0 7.838-6.377 14.216-14.216 14.216h-43.021c-7.839 0-14.216-6.377-14.216-14.216s6.377-14.216 14.216-14.216h43.021c7.839.001 14.216 6.378 14.216 14.216zm-57.236-29.215c-7.839 0-14.216-6.377-14.216-14.216 0-7.838 6.377-14.216 14.216-14.216h43.021c7.839 0 14.216 6.377 14.216 14.216s-6.377 14.216-14.216 14.216z"/><path d="m228.837 58.22h17.066c4.142 0 7.5-3.358 7.5-7.5s-3.358-7.5-7.5-7.5h-17.066c-8.5 0-15.974-5.734-18.175-13.944l-3.829-14.276h45.045c4.142 0 7.5-3.358 7.5-7.5s-3.358-7.5-7.5-7.5h-62.813c-32.734 0-59.365 26.631-59.365 59.365v87.688c0 4.142 3.358 7.5 7.5 7.5s7.5-3.358 7.5-7.5v-87.688c0-24.463 19.902-44.365 44.365-44.365h2.238l4.87 18.161c3.956 14.755 17.388 25.059 32.664 25.059z"/><path d="m473.234 0h-172.485c-17.836 0-32.346 14.51-32.346 32.346v68.572c0 17.836 14.51 32.346 32.346 32.346h37.909c4.142 0 7.5-3.358 7.5-7.5s-3.358-7.5-7.5-7.5h-37.909c-9.565 0-17.346-7.781-17.346-17.346v-68.572c0-9.565 7.781-17.346 17.346-17.346h172.485c9.565 0 17.346 7.781 17.346 17.346v68.572c0 9.565-7.781 17.346-17.346 17.346h-102.613c-4.142 0-7.5 3.358-7.5 7.5s3.358 7.5 7.5 7.5h102.613c17.836 0 32.346-14.51 32.346-32.346v-68.572c0-17.836-14.51-32.346-32.346-32.346z"/><path d="m355.826 84.406-15.225-40.346c-.026-.07-.054-.139-.082-.208-1.306-3.171-4.364-5.219-7.793-5.219-.003 0-.007 0-.01 0-3.433.004-6.49 2.06-7.79 5.237-.023.056-.045.113-.067.17l-15.366 40.344c-1.474 3.871.468 8.204 4.339 9.678.878.335 1.781.493 2.668.493 2.745 0 5.332-1.529 6.64-4.05h19.015c1.724 3.332 5.704 4.922 9.302 3.565 3.876-1.462 5.832-5.789 4.369-9.664zm-19.391-8.9h-7.51l3.772-9.904z"/><path d="m146.019 289.529c-.165-.307-.161-.672.01-.977l14.09-25.04c2.031-3.61.752-8.183-2.858-10.214-3.609-2.03-8.182-.751-10.214 2.858l-14.09 25.04c-2.701 4.8-2.761 10.563-.16 15.418l26.116 48.738c20.24 37.772 17.651 83.119-6.756 118.342l-24.462 35.303c-2.359 3.405-1.512 8.077 1.893 10.436 1.303.903 2.792 1.336 4.265 1.336 2.377 0 4.715-1.127 6.171-3.229l24.462-35.303c27.63-39.875 30.561-91.209 7.648-133.97z"/><path d="m161.803 162.168c-8.941-.191-17.353 3.136-23.722 9.395l-60.494 59.439c-34.047 33.453-52.624 79.998-50.968 127.7l1.207 34.743-21.238 29.734c-2.408 3.371-1.627 8.055 1.744 10.462 1.321.944 2.844 1.397 4.353 1.397 2.34 0 4.646-1.092 6.109-3.141l22.719-31.807c.96-1.345 1.45-2.968 1.393-4.62l-1.295-37.289c-1.511-43.511 15.434-85.966 46.489-116.48l60.494-59.439c3.456-3.396 8.021-5.222 12.872-5.097 4.844.109 9.33 2.123 12.63 5.67 5.296 5.693 6.292 14.071 2.479 20.848l-13.251 23.548c-2.031 3.61-.752 8.183 2.858 10.214 3.611 2.032 8.184.752 10.214-2.858l13.251-23.548c7.027-12.489 5.191-27.929-4.569-38.421-6.081-6.538-14.347-10.249-23.275-10.45z"/><path d="m445.616 83.029c-3.51 0-6.866-1.39-8.976-3.719-2.781-3.068-7.524-3.303-10.594-.521-3.069 2.781-3.302 7.524-.521 10.594 4.979 5.494 12.302 8.646 20.09 8.646 9.898 0 18.226-6.401 19.801-15.22 1.833-10.27-6.171-17.106-13.583-19.84-4.679-1.726-9.064-3.596-10.841-4.368-.059-.101-.094-.246-.063-.463.091-.638.716-1.177 1.713-1.477 4.644-1.395 9.177 2.083 9.377 2.24 3.17 2.611 7.86 2.188 10.509-.963 2.665-3.171 2.255-7.902-.915-10.567-3.933-3.306-13.267-8.093-23.298-5.072-6.619 1.994-11.307 7.247-12.234 13.708-.878 6.118 1.776 12.004 6.928 15.362.331.216.679.405 1.04.566.244.109 6.055 2.695 12.593 5.107 2.783 1.026 4.143 2.379 4.008 3.13-.178.996-1.837 2.857-5.034 2.857z"/><path d="m387.816 96.589c4.001 0 7.764-1.037 11.038-2.852 1.22.859 2.704 1.367 4.309 1.367 4.142 0 7.5-3.358 7.5-7.5v-41.341c0-4.142-3.358-7.5-7.5-7.5s-7.5 3.358-7.5 7.5v6.021c-2.448-.898-5.091-1.388-7.847-1.388-12.598 0-22.847 10.249-22.847 22.847 0 12.597 10.249 22.846 22.847 22.846zm0-30.694c4.327 0 7.847 3.52 7.847 7.847s-3.52 7.847-7.847 7.847-7.847-3.52-7.847-7.847 3.52-7.847 7.847-7.847z"/></g></g></svg>