<svg xmlns="http://www.w3.org/2000/svg" viewBox="0 0 841.89 595.28"><defs><style>.cls-1{fill:#d1c32a;}.cls-2{fill:#cd2029;}.cls-3{fill:#217eb2;}.cls-4{fill:#2e579a;}.cls-5{fill:#4067b1;}.cls-6{fill:#f8ec1e;}.cls-7{fill:#ec2326;}.cls-8{fill:#429cd6;}.cls-9{fill:#040504;}</style></defs><title>TCS Final Logo 02 improved JPG No back</title><g id="Layer_4" data-name="Layer 4"><path class="cls-1" d="M464.72,251,498,276.43a1.08,1.08,0,0,1-.46,1.93L479,281.79a8.46,8.46,0,0,0-.85.43l2.59,5.63a8.54,8.54,0,0,1,1.13-.57l29.3-5.44a1.72,1.72,0,0,0,.74-3l-52.64-40.27a2.17,2.17,0,0,0-2.36.11l6.16,12.49A1.55,1.55,0,0,1,464.72,251Z"/><path class="cls-2" d="M497.54,278.36a1.08,1.08,0,0,0,.46-1.93L464.72,251a1.08,1.08,0,0,0-1.35,0l5.12,10.36a.55.55,0,0,1,.73-.08L486,274.08a.54.54,0,0,1-.23,1l-9.32,1.73a3.11,3.11,0,0,0-.63.32l2.39,5.12a8.46,8.46,0,0,1,.85-.43Z"/><path class="cls-3" d="M485.72,275.05a.54.54,0,0,0,.23-1l-16.73-12.81a.55.55,0,0,0-.73.08l7.28,15.75a3.11,3.11,0,0,1,.63-.32Z"/><path class="cls-4" d="M530.28,282.5,452.52,223a2.51,2.51,0,0,0-3,0l7.68,15.55a1.71,1.71,0,0,1,2.07,0l52.64,40.27a1.72,1.72,0,0,1-.74,3l-29.3,5.44a2.73,2.73,0,0,0-.68.29l3.54,7.87a8,8,0,0,1,1.17-.39l43.29-8A2.53,2.53,0,0,0,530.28,282.5Z"/><path class="cls-5" d="M447.42,323.27l.33-97.91a2.52,2.52,0,0,1,1.79-2.4l7.64,15.58a1.69,1.69,0,0,0-1.26,1.64l-.22,66.28a1.71,1.71,0,0,0,2.86,1.28l22.19-19.89a1.78,1.78,0,0,1,.45-.28l3.83,7.82a2.52,2.52,0,0,0-.59.39l-32.79,29.39A2.54,2.54,0,0,1,447.42,323.27Z"/><path class="cls-6" d="M462.45,252.09l-.14,41.9a1.08,1.08,0,0,0,1.81.81l14-12.58a1.19,1.19,0,0,1,.33-.19l2.71,5.54a1.78,1.78,0,0,0-.45.28l-22.19,19.89a1.71,1.71,0,0,1-2.86-1.28l.22-66.28a1.69,1.69,0,0,1,1.26-1.64L463.3,251A1.07,1.07,0,0,0,462.45,252.09Z"/><path class="cls-7" d="M464.12,294.8a1.08,1.08,0,0,1-1.81-.81l.14-41.9c0-.55.7-1.13,1.16-1.24l5.09,10.36c-.26,0-.82.43-.82.73L467.81,283a.54.54,0,0,0,.91.41l7-6.32A.55.55,0,0,1,476,277l2.48,5a1.19,1.19,0,0,0-.33.19Z"/><path class="cls-8" d="M468.72,283.42a.54.54,0,0,1-.91-.41l.07-21.07c0-.3.56-.71.82-.73L476,277a.55.55,0,0,0-.24.12Z"/></g><g id="Layer_2" data-name="Layer 2"><path class="cls-9" d="M329.77,202.43H313.32v-5.89h40v5.89H336.79v48.13h-7Z"/><path class="cls-9" d="M366.31,196.54v22.62h26.11V196.54h7v54h-7V225.22H366.31v25.34h-7v-54Z"/><path class="cls-9" d="M439.51,225.23H418.57v19.52H442v5.81H411.55v-54h29.21v5.81H418.57v17.11h20.94Z"/><path class="cls-9" d="M536.3,266.4h7v48.14h23.1v5.88H536.3Z"/><path class="cls-9" d="M313.36,381.15a24.32,24.32,0,0,0,12.46,3.5c7.14,0,11.34-3.72,11.34-9.2,0-5-2.93-8-10.22-10.69-8.82-3.12-14.29-7.76-14.29-15.32,0-8.41,7-14.65,17.51-14.65,5.49,0,9.57,1.27,11.92,2.61l-1.94,5.72a20.59,20.59,0,0,0-10.21-2.56c-7.42,0-10.22,4.39-10.22,8.07,0,5,3.29,7.5,10.74,10.38,9.17,3.59,13.78,8,13.78,15.91,0,8.29-6.1,15.58-18.9,15.58-5.23,0-10.92-1.58-13.8-3.53Z"/><path class="cls-9" d="M391.53,387.92c-2.51,1.27-7.69,2.58-14.27,2.58-15.22,0-26.63-9.63-26.63-27.37,0-16.95,11.43-28.34,28.2-28.34,6.67,0,11,1.41,12.82,2.38l-1.72,5.68a25.7,25.7,0,0,0-10.87-2.23c-12.69,0-21.07,8.11-21.07,22.29,0,13.22,7.61,21.66,20.7,21.66a28.38,28.38,0,0,0,11.44-2.21Z"/><path class="cls-9" d="M400.26,336.37a74,74,0,0,1,13.42-1.16c7.4,0,12.28,1.41,15.65,4.45a13.5,13.5,0,0,1,4.24,10.27c0,7.09-4.53,11.81-10.18,13.76v.2c4.12,1.44,6.61,5.34,7.92,10.94,1.78,7.55,3.05,12.71,4.15,14.83h-7.23c-.85-1.57-2.07-6.17-3.55-12.94-1.61-7.4-4.53-10.27-10.85-10.48h-6.6v23.42h-7Zm7,24.59h7.13c7.47,0,12.2-4.06,12.2-10.25,0-7-5.06-10.07-12.42-10.08a30.83,30.83,0,0,0-6.91.61Z"/><path class="cls-9" d="M489.82,362.1c0,18.54-11.29,28.44-25.07,28.44-14.33,0-24.28-11.1-24.28-27.42,0-17.12,10.59-28.37,25-28.37C480.24,334.75,489.82,346.05,489.82,362.1Zm-42,.86c0,11.56,6.28,21.9,17.28,21.9s17.31-10.18,17.31-22.45c0-10.76-5.61-22-17.22-22S447.85,351.14,447.85,363Z"/><path class="cls-9" d="M498.84,335.63h7v48.14H529v5.89H498.84Z"/><path class="cls-9" d="M536.67,335.63h7v48.14h23.1v5.89H536.67Z"/><path class="cls-9" d="M265.88,267.14A93.11,93.11,0,0,1,280.73,266c10,0,17.16,2.37,21.88,6.78s7.65,10.64,7.65,19.34-2.76,16-7.77,21S289,320.9,278.57,320.9a111.83,111.83,0,0,1-12.69-.6Zm7,47.79a49.22,49.22,0,0,0,7,.33c14.95,0,23-8.29,23-22.9.09-12.76-7.13-20.81-21.84-20.81a41.48,41.48,0,0,0-8.18.71Z"/><path class="cls-9" d="M326.27,266.4v54h-7v-54Z"/><path class="cls-9" d="M379.59,318A49,49,0,0,1,363,321c-8.19,0-15-2.07-20.2-7.14-4.66-4.49-7.53-11.66-7.51-20.06,0-16.12,11.1-27.91,29.2-27.91A34,34,0,0,1,378,268.34L376.24,274a27.5,27.5,0,0,0-11.93-2.31c-13.11,0-21.7,8.15-21.7,21.68,0,13.69,8.21,21.8,20.85,21.8,4.57,0,7.66-.64,9.27-1.46V297.65H361.8v-5.58h17.79Z"/><path class="cls-9" d="M397.2,266.4v54h-7v-54Z"/><path class="cls-9" d="M419.66,272.29H403.2V266.4h40v5.89H426.67v48.13h-7Z"/></g></svg>